HIERARCHY
ROOT hip
{
	OFFSET 0.000000 0.000000 0.000000
	CHANNELS 6 Xposition Yposition Zposition Xrotation Zrotation Yrotation 
	JOINT abdomen
	{
		OFFSET 0.000000 3.422050 0.000000
		CHANNELS 3 Xrotation Zrotation Yrotation 
		JOINT chest
		{
			OFFSET 0.000000 8.486693 -0.684411
			CHANNELS 3 Xrotation Zrotation Yrotation 
			JOINT neck
			{
				OFFSET 0.000000 10.266162 -0.273764
				CHANNELS 3 Xrotation Zrotation Yrotation 
				JOINT head
				{
					OFFSET 0.000000 3.148285 0.000000
					CHANNELS 3 Xrotation Zrotation Yrotation 
					End Site
					{
						OFFSET 0.000000 3.148289 0.000000
					}
				}
			}
			JOINT lCollar
			{
				OFFSET 3.422053 6.707223 -0.821293
				CHANNELS 3 Yrotation Zrotation Xrotation 
				JOINT lShldr
				{
					OFFSET 3.285171 0.000000 0.000000
					CHANNELS 3 Zrotation Yrotation Xrotation 
					JOINT lForeArm
					{
						OFFSET 10.129278 0.000000 0.000000
						CHANNELS 3 Yrotation Zrotation Xrotation 
						JOINT lHand
						{
							OFFSET 8.486692 0.000000 0.000000
							CHANNELS 3 Zrotation Yrotation Xrotation 
							End Site
							{
								OFFSET 4.106464 0.000000 0.000000
							}
						}
					}
				}
			}
			JOINT rCollar
			{
				OFFSET -3.558935 6.707223 -0.821293
				CHANNELS 3 Yrotation Zrotation Xrotation 
				JOINT rShldr
				{
					OFFSET -3.148289 0.000000 0.000000
					CHANNELS 3 Zrotation Yrotation Xrotation 
					JOINT rForeArm
					{
						OFFSET -10.266159 0.000000 0.000000
						CHANNELS 3 Yrotation Zrotation Xrotation 
						JOINT rHand
						{
							OFFSET -8.349810 0.000000 0.000000
							CHANNELS 3 Zrotation Yrotation Xrotation 
							End Site
							{
								OFFSET -4.106464 0.000000 0.000000
							}
						}
					}
				}
			}
		}
	}
	JOINT lThigh
	{
		OFFSET 5.338403 -1.642589 1.368821
		CHANNELS 3 Xrotation Zrotation Yrotation 
		JOINT lShin
		{
			OFFSET -2.053232 -20.121670 0.000000
			CHANNELS 3 Xrotation Zrotation Yrotation 
			JOINT lFoot
			{
				OFFSET 0.000000 -19.300380 -1.231939
				CHANNELS 3 Xrotation Yrotation Zrotation 
				End Site
				{
					OFFSET 0.000000 -2.463878 4.653993
				}
			}
		}
	}
	JOINT rThigh
	{
		OFFSET -5.338403 -1.642589 1.368821
		CHANNELS 3 Xrotation Zrotation Yrotation 
		JOINT rShin
		{
			OFFSET 2.053232 -20.121670 0.000000
			CHANNELS 3 Xrotation Zrotation Yrotation 
			JOINT rFoot
			{
				OFFSET 0.000000 -19.300380 -1.231939
				CHANNELS 3 Xrotation Yrotation Zrotation 
				End Site
				{
					OFFSET 0.000000 -2.463878 4.653993
				}
			}
		}
	}
}
MOTION
Frames: 10
Frame Time: 0.049897
19.995884 22.721600 10.561603 91.227585 -0.006122 179.993744 -3.168100 0.000000 0.000000 10.017244 -0.001606 -0.449971 9.449350 -7.362457 16.663389 0.085016 0.000090 -0.121828 -7.244567 -23.097095 -5.730847 -35.944050 1.099731 54.781479 -12.576582 -0.129136 35.894302 -0.293670 -3.432003 -5.215155 7.475960 24.202181 -5.802113 34.659374 -1.108751 54.770351 12.728060 0.427718 35.874279 0.182717 3.472328 -5.230551 -89.711456 14.791649 26.842897 24.039646 -0.238727 -41.849937 3.361350 9.090916 15.790938 -89.799820 -12.804737 -26.837141 24.153194 0.113384 41.847115 3.295746 -9.785653 -17.569597 
19.995884 22.721600 10.513993 90.952545 -0.006137 179.993759 -3.493424 0.000000 0.000000 9.465536 -0.001613 -0.449940 9.349235 -7.546204 16.583948 0.084591 0.000089 -0.121219 -6.786160 -22.315750 -5.359371 -36.741817 1.145679 54.798943 -12.915195 -0.122216 35.899422 -0.655574 -3.266474 -4.929866 6.997691 23.362038 -5.418258 35.525955 -1.154091 54.788776 13.058541 0.404800 35.879662 0.550438 3.304962 -4.944154 -89.711456 14.791649 26.842897 23.848963 -0.246468 -41.851044 3.361350 9.090916 15.790938 -89.799820 -12.804737 -26.837141 23.967659 0.115461 41.848167 3.295746 -9.785653 -17.569597 
19.995884 22.721600 10.466384 90.677521 -0.006152 179.993774 -3.818738 0.000000 0.000000 8.913879 -0.001620 -0.449909 9.249369 -7.730018 16.504829 0.084166 0.000089 -0.120610 -6.335837 -21.531908 -4.996755 -37.539421 1.191856 54.815746 -13.253796 -0.115329 35.904591 -1.016562 -3.099163 -4.645696 6.528624 22.519262 -5.044494 36.392319 -1.199692 54.806488 13.389015 0.381916 35.885189 0.917229 3.135779 -4.658906 -89.711456 14.791649 26.842897 23.658281 -0.254212 -41.852127 3.361350 9.090916 15.790938 -89.799820 -12.804737 -26.837141 23.782133 0.117541 41.849224 3.295746 -9.785653 -17.569597 
19.995884 22.721600 10.418774 90.402481 -0.006167 179.993790 -4.144035 0.000000 0.000000 8.362296 -0.001626 -0.449877 9.149760 -7.913896 16.426035 0.083741 0.000088 -0.120001 -5.893372 -20.745768 -4.642786 -38.336792 1.238250 54.831898 -13.592381 -0.108473 35.909801 -1.376624 -2.930087 -4.362660 6.068472 21.674084 -4.680546 37.258389 -1.245541 54.823509 13.719473 0.359064 35.890846 1.283076 2.964795 -4.374821 -89.711456 14.791649 26.842897 23.467598 -0.261961 -41.853184 3.361350 9.090916 15.790938 -89.799820 -12.804737 -26.837141 23.596603 0.119625 41.850262 3.295747 -9.785654 -17.569599 
19.995884 22.721600 10.371164 90.127472 -0.006182 179.993805 -4.469313 0.000000 0.000000 7.810816 -0.001633 -0.449846 9.050394 -8.097834 16.347549 0.083316 0.000087 -0.119391 -5.458546 -19.957514 -4.297256 -39.133854 1.284847 54.847408 -13.930941 -0.101646 35.915039 -1.735742 -2.759265 -4.080776 5.616966 20.826735 -4.326158 38.124065 -1.291618 54.839828 14.049908 0.336247 35.896626 1.647963 2.792033 -4.091921 -89.711456 14.791649 26.842897 23.276924 -0.269710 -41.854221 3.361350 9.090916 15.790938 -89.799820 -12.804737 -26.837141 23.411083 0.121712 41.851303 3.295746 -9.785653 -17.569597 
19.995884 22.721600 10.323555 89.852493 -0.006197 179.993820 -4.794562 0.000000 0.000000 7.259466 -0.001639 -0.449815 8.951283 -8.281832 16.269386 0.082891 0.000086 -0.118782 -5.031155 -19.167353 -3.959969 -39.930534 1.331630 54.862255 -14.269471 -0.094852 35.920319 -2.093900 -2.586714 -3.800056 5.173837 19.977432 -3.981074 38.989250 -1.337911 54.855450 14.380318 0.313466 35.902550 2.011875 2.617507 -3.810218 -89.711456 14.791649 26.842897 23.086252 -0.277464 -41.855221 3.361350 9.090916 15.790938 -89.799820 -12.804737 -26.837141 23.225561 0.123802 41.852325 3.295746 -9.785653 -17.569597 
19.995884 22.721600 10.275946 89.577499 -0.006211 179.993835 -5.119781 0.000000 0.000000 6.708265 -0.001644 -0.449783 8.852416 -8.465886 16.191540 0.082466 0.000085 -0.118173 -4.610985 -18.375450 -3.630725 -40.726746 1.378587 54.876450 -14.607968 -0.088090 35.925640 -2.451089 -2.412451 -3.520514 4.738825 19.126398 -3.645047 39.853848 -1.384405 54.870354 14.710694 0.290721 35.908585 2.374798 2.441237 -3.529726 -89.711456 14.791649 26.842897 22.895588 -0.285221 -41.856205 3.361350 9.090916 15.790938 -89.799820 -12.804737 -26.837141 23.040051 0.125896 41.853355 3.295746 -9.785653 -17.569597 
19.995884 22.721600 10.228336 89.302551 -0.006226 179.993851 -5.444963 0.000000 0.000000 6.157248 -0.001650 -0.449752 8.753799 -8.649999 16.114014 0.082040 0.000084 -0.117564 -4.197841 -17.582001 -3.309336 -41.522423 1.425706 54.889973 -14.946424 -0.081361 35.931011 -2.807290 -2.236496 -3.242170 4.311683 18.273857 -3.317844 40.717743 -1.431081 54.884529 15.041037 0.268015 35.914761 2.736715 2.263243 -3.250463 -89.711456 14.791649 26.842897 22.704931 -0.292982 -41.857155 3.361350 9.090916 15.790938 -89.799820 -12.804737 -26.837141 22.854546 0.127990 41.854370 3.295746 -9.785653 -17.569597 
19.995884 22.721600 10.180727 89.027626 -0.006240 179.993881 -5.770103 0.000000 0.000000 5.606430 -0.001655 -0.449720 8.655426 -8.834158 16.036798 0.081615 0.000083 -0.116955 -3.791524 -16.787188 -2.995619 -42.317493 1.472973 54.902832 -15.284837 -0.074664 35.936417 -3.162494 -2.058867 -2.965033 3.892166 17.420019 -2.999233 41.580868 -1.477919 54.898006 15.371338 0.245347 35.921070 3.097616 2.083542 -2.972441 -89.711456 14.791649 26.842897 22.514288 -0.300743 -41.858093 3.361350 9.090916 15.790938 -89.799820 -12.804737 -26.837141 22.669044 0.130093 41.855370 3.295746 -9.785653 -17.569597 
19.995884 22.721600 10.133118 88.752724 -0.006255 179.993881 -6.095198 0.000000 0.000000 5.055845 -0.001660 -0.449689 8.557300 -9.018370 15.959898 0.081190 0.000082 -0.116346 -3.391845 -15.991186 -2.689393 -43.111877 1.520368 54.915043 -15.623187 -0.067999 35.941841 -3.516685 -1.879583 -2.689119 3.480037 16.565086 -2.688992 42.443115 -1.524909 54.910770 15.701588 0.222719 35.927505 3.457487 1.902156 -2.695678 -89.711456 14.791649 26.842897 22.323647 -0.308509 -41.858990 3.361350 9.090916 15.790938 -89.799820 -12.804737 -26.837141 22.483553 0.132195 41.856365 3.295747 -9.785654 -17.569599 
